<?xml version="1.0" encoding="UTF-8" standalone="yes"?>
<svg xmlns="http://www.w3.org/2000/svg" xmlns:xlink="http://www.w3.org/1999/xlink" width="50" height="50">
  <svg xmlns="http://www.w3.org/2000/svg" viewBox="0 0 24 24" width="50" height="50" id="18838">
    <path d="M12 11c2.256 0 2.781.781 3.006 1.114l.404.599c.548.813 1.322 1.959 1.874 2.802l-1.477 1.04c-1.322.93-2.811 1.976-3.807 2.7-.594-.428-1.356-.954-2.157-1.507-1.076-.743-2.272-1.569-3.132-2.209.512-.797 1.647-2.562 2.229-3.345C9.248 11.776 9.825 11 12 11m0-2c-3 0-4.109 1.25-4.667 2-.627.844-1.765 2.615-2.333 3.5-.953 1.484-.797 1.625-.004 2.246C6.473 17.906 9.483 19.894 11 21c.442.322.74.468 1.017.468.299 0 .574-.169.983-.468 1.514-1.107 4.473-3.163 6-4.25.812-.578 1-.703.333-1.75-.646-1.014-1.997-3.005-2.668-4.002C16.109 10.172 15 9 12 9zm10-3c0-2.21-1.34-4-3-4v4.379l-3.268-3.268c-1.174 1.174-.856 3.387.707 4.95a5.011 5.011 0 0 0 1.573 1.061A1.995 1.995 0 0 0 22 9a1.99 1.99 0 0 0-.363-1.144C21.862 7.301 22 6.676 22 6zM8.292 3.111L5 6.402V2C3 2 2 3.79 2 6c0 .714.116 1.374.327 1.952A1.982 1.982 0 0 0 2.024 9a1.995 1.995 0 1 0 3.988.122 5.007 5.007 0 0 0 1.572-1.061c1.563-1.563 1.881-3.776.708-4.95z"/>
    <path fill="none" stroke="#000" stroke-miterlimit="10" stroke-width="2" d="M8 12l-4-2m12 2l4-2m-2 6l3.5 1M6 16l-3.5 1M16 18l3 3M8 18l-3 3m2-7l-4.5-1M17 14l4.5-1"/>
  </svg>
</svg>