<?xml version="1.0" encoding="UTF-8" standalone="yes"?>
<svg xmlns="http://www.w3.org/2000/svg" xmlns:xlink="http://www.w3.org/1999/xlink" width="50" height="50">
  <svg xmlns="http://www.w3.org/2000/svg" viewBox="0 0 24 24" width="50" height="50" id="18921">
    <path d="M13 5c0 1.1-3.2 3.4-4 2-1.3-2.2-3-2.9-3-3 0-.5 1.3-1 3-1s4 1 4 2z"/>
    <path d="M20 8c-.3-1.7-2.8-4-6-4-2.9 0-5.9 1.6-7 3-2.6 3.2-2 7.9-2 9-1.3.5-2 2.7-2 5 0 0 3-2.2 4-2 .8.1 3 1 3 1-.3-2.9-2.6-4.2-3-4 .9-3.7 4-5.2 8-5h4c1.6 0 3-.4 3-1 0-.5-.6-1.5-2-2z"/>
    <path d="M16 9c0-.6-3 .4-3 1 .1 1.8 0 3 0 3 3 0 3-3.4 3-4z"/>
  </svg>
</svg>