<?xml version="1.0" encoding="UTF-8" standalone="yes"?>
<svg xmlns="http://www.w3.org/2000/svg" xmlns:xlink="http://www.w3.org/1999/xlink" width="50" height="50">
  <svg xmlns="http://www.w3.org/2000/svg" viewBox="0 0 24 24" width="50" height="50" id="19016">
    <path d="M15 14v7h2v-8c-.456.398-1.485 1-2 1zm-3 1v6h2v-6c-.456.398-1.485 0-2 0zm-8-3v9h2v-6c-.63-.357-1.397-3.112-2-3zm3 3.011V21h2v-4.989c-.63-.356-1.397-1.112-2-1z"/>
    <path d="M10 17c-.903 0-1.74-.411-2.299-1.083A3.004 3.004 0 0 1 4 13v-.171C2.836 12.416 2.02 11.304 2.02 10S2.836 7.584 4 7.171V7a3.004 3.004 0 0 1 3.702-2.917C8.261 3.411 9.097 3 10 3s1.739.411 2.298 1.083A3.006 3.006 0 0 1 15.829 6H16c1.654 0 3 1.346 3 3v2c0 1.654-1.346 3-3 3h-.171a3.006 3.006 0 0 1-3.53 1.917A2.994 2.994 0 0 1 10 17zm-1.367-3.9S8.5 15 10 15c1.625 0 1.367-1.9 1.367-1.9s.675.9 1.633.9a1 1 0 0 0 1-1v-1h2c.552 0 1-.449 1-1V9c0-.551-.448-1-1-1h-2V7c0-.551-.448-1-1-1-1.083 0-1.633.899-1.633.899S11.5 5 10 5C8.583 5 8.633 6.899 8.633 6.899S7.875 6 7 6C5.833 6 6 8 6 8v1H5a1.001 1.001 0 0 0 0 2h1v1s-.25 2 1 2c1.125 0 1.633-.9 1.633-.9z"/>
    <path d="M21.85 12c.114-.48-.241-1.328-.85-2-.509-.561-1.185-1-2-1-.572 0-1.23-.23-2 0-2.04-.93-2.97.58-2.98 1-.01.45 1.45.06 1.98 0-.11.18-.83 2.17 0 3 .43.57 2.52 1.01 4 1 1.21-.01 1.88-.33 2-1 .04-.23.04-.68-.15-1zm-2.35 0a.5.5 0 1 1 0-1 .5.5 0 0 1 0 1z"/>
  </svg>
</svg>